Coordinates
version=1
nRows=14
nColumns=28
inDegrees=yes

Units are S.I. units (second, meters, Newtons, ...)
Angles are in degrees.

endheader
time	pelvis_tilt	pelvis_list	pelvis_rotation	pelvis_tx	pelvis_ty	pelvis_tz	hip_flexion_r	hip_adduction_r	hip_rotation_r	knee_angle_r	ankle_angle_r	subtalar_angle_r	mtp_angle_r	hip_flexion_l	hip_adduction_l	hip_rotation_l	knee_angle_l	socket_flexion	socket_adduction	socket_rotation	socket_tx	socket_ty	socket_tz	foot_flex	lumbar_extension	lumbar_bending	lumbar_rotation
      0.54583333	      0.83297921	     -5.61178266	     10.97208124	     -0.03553291	      0.96430285	      0.21460476	     23.50162229	      6.52178369	     -5.58390017	     -8.98993431	      7.45052832	    -19.56529218	     -7.55422007	    -18.40118961	     -7.78226590	     -8.08354150	    -17.47767446	     -3.63262040	     -5.21456060	     20.50097084	     -0.00997429	     -0.00230550	     -0.00870788	     10.30993630	     -8.48584842	      6.69179659	    -19.22289371
      0.55000000	      0.83286000	     -5.61180898	     10.97222666	     -0.03552610	      0.96430107	      0.21460934	     23.50154962	      6.52175673	     -5.58391658	     -8.99001461	      7.45051537	    -19.56535225	     -7.55412266	    -18.40111276	     -7.78203121	     -8.08359662	    -17.47759616	     -3.63277893	     -5.21439711	     20.50120054	     -0.00997569	     -0.00231760	     -0.00870820	     10.30994373	     -8.48569538	      6.69178194	    -19.22288141
      0.55416667	      0.87031209	     -5.67335624	     10.98068624	     -0.02918231	      0.96303306	      0.21433788	     23.84635745	      6.65442095	     -5.56756302	    -10.06485563	      6.98707324	    -19.67359305	     -7.43897096	    -18.56355924	     -7.85160727	     -8.21421426	    -17.73611263	     -3.34503928	     -5.26993661	     20.55748503	     -0.00956317	     -0.00222466	     -0.00840112	     10.34739392	     -8.47596571	      6.86585267	    -19.28148496
      0.55833333	      0.88584231	     -5.73374236	     10.96090691	     -0.02282432	      0.96174979	      0.21413053	     24.21396363	      6.79405090	     -5.50076350	    -11.15586697	      6.48099180	    -19.77763459	     -7.27778564	    -18.67649155	     -7.90340542	     -8.33845094	    -18.01922899	     -3.03196786	     -5.32330269	     20.60787098	     -0.00906865	     -0.00214290	     -0.00807632	     10.35463700	     -8.44265751	      7.03373628	    -19.30629298
      0.56250000	      0.88600065	     -5.79109399	     10.90756912	     -0.01648034	      0.96047939	      0.21402422	     24.60685508	      6.94103297	     -5.39468872	    -12.27037624	      5.93057692	    -19.88340915	     -7.07578036	    -18.74781802	     -7.94957745	     -8.46876852	    -18.32863979	     -2.69394773	     -5.36626791	     20.64447651	     -0.00855141	     -0.00201883	     -0.00782048	     10.33000105	     -8.39835844	      7.19206856	    -19.30098669
      0.56666667	      0.86290226	     -5.85164696	     10.82756751	     -0.01010163	      0.95919896	      0.21394631	     25.01809116	      7.09242276	     -5.24942740	    -13.38840835	      5.35114194	    -19.99298604	     -6.83385103	    -18.77289553	     -7.98731472	     -8.60191284	    -18.66251566	     -2.33353734	     -5.39763357	     20.67104078	     -0.00800999	     -0.00192221	     -0.00759758	     10.26782357	     -8.32589395	      7.33638704	    -19.26361535
      0.57083333	     -0.01914942	     -5.80408389	     10.40947020	     -0.00368470	      0.95673606	      0.21434993	     26.43811357	      7.11658181	     -4.54844323	    -14.72274830	      4.20330234	    -21.06034422	     -4.87246895	    -17.68243003	     -7.58069707	     -9.30659036	    -19.17491140	     -1.73867101	     -5.69633313	     21.19219092	     -0.00560326	     -0.00145770	     -0.00649657	     10.15488338	     -7.28669619	      7.15119393	    -18.64329526
      0.57500000	      0.14894654	     -5.89501844	     10.46978472	      0.00262149	      0.95586603	      0.21415830	     26.51097358	      7.32687455	     -4.29917941	    -15.60280803	      3.84136233	    -20.98680461	     -4.79723467	    -17.80126215	     -7.72950488	     -9.19983572	    -19.56710574	     -1.32290174	     -5.70447922	     21.20368939	     -0.00497921	     -0.00133255	     -0.00633342	     10.04601625	     -7.43352131	      7.37832213	    -18.69663081
      0.57916667	      0.28168552	     -5.94588655	     10.34141411	      0.00908460	      0.95488743	      0.21459279	     26.78152856	      7.52842833	     -4.30090190	    -16.76412223	      3.20185711	    -21.01240310	     -4.63393562	    -17.94779222	     -7.90325441	     -9.38622943	    -19.96891003	     -0.94433201	     -5.54796818	     21.07508383	     -0.00483778	     -0.00118295	     -0.00686507	      9.86333433	     -7.52464173	      7.48659209	    -18.76056974
      0.58333333	     -0.26884197	     -6.00553354	     10.00575315	      0.01550233	      0.95298025	      0.21519263	     27.75564894	      7.74672744	     -3.66177619	    -17.91183681	      1.93830361	    -22.05856520	     -2.44482762	    -17.15839421	     -7.86008334	     -9.90628534	    -20.52252921	     -0.37924464	     -5.61620811	     21.45117820	     -0.00303788	     -0.00091434	     -0.00697178	      9.65573441	     -6.88859954	      7.45094668	    -18.21267393
      0.58750000	     -0.09583497	     -6.13287520	      9.97980100	      0.02203231	      0.95231357	      0.21505589	     27.81294989	      7.98966190	     -3.53812009	    -18.81002662	      1.60425206	    -21.99757031	     -2.38670038	    -17.26192766	     -7.95845414	     -9.87090971	    -20.94664282	      0.09071297	     -5.63459142	     21.33578394	     -0.00252086	     -0.00064433	     -0.00627341	      9.38797315	     -7.01259683	      7.74491667	    -18.26343831
      0.59166667	      0.05769313	     -6.24970247	      9.95111510	      0.02858829	      0.95156896	      0.21507397	     27.90789496	      8.22897831	     -3.40112708	    -19.76210131	      1.24671543	    -21.92718510	     -2.33440041	    -17.34261600	     -8.11323597	     -9.87715322	    -21.39162615	      0.56655858	     -5.60295357	     21.19871244	     -0.00234114	     -0.00064904	     -0.00606197	      9.08040735	     -7.10857181	      7.98482859	    -18.27792153
      0.59583333	      0.11796664	     -6.34268390	      9.75812814	      0.03533766	      0.95069053	      0.21569225	     28.19023678	      8.47762543	     -3.40858577	    -20.89197168	      0.73592183	    -21.93283733	     -2.17669102	    -17.36991786	     -8.35337046	    -10.05713154	    -21.85289865	      0.98029448	     -5.36350628	     21.05373007	     -0.00254409	     -0.00063278	     -0.00690387	      8.71490590	     -7.09953227	      8.08806956	    -18.21484960
      0.60000000	      0.17999718	     -6.48927377	      9.63305254	      0.04185529	      0.94995698	      0.21595556	     28.39466492	      8.76428546	     -3.25518363	    -21.84061557	      0.40198495	    -21.94886716	     -2.00278974	    -17.22240012	     -8.54259247	    -10.15056003	    -22.37534643	      1.50440229	     -5.25176724	     20.87360829	     -0.00172176	     -0.00044406	     -0.00703269	      8.29435933	     -7.09954219	      8.30716700	    -18.08500473
